<?xml version="1.0" encoding="UTF-8" standalone="no"?>
<!DOCTYPE svg PUBLIC "-//W3C//DTD SVG 1.1//EN" "http://www.w3.org/Graphics/SVG/1.1/DTD/svg11.dtd">
<svg width="100%" height="100%" viewBox="0 0 196 257" version="1.1" xmlns="http://www.w3.org/2000/svg" xmlns:xlink="http://www.w3.org/1999/xlink" xml:space="preserve" xmlns:serif="http://www.serif.com/" style="fill-rule:evenodd;clip-rule:evenodd;stroke-linejoin:round;stroke-miterlimit:2;">
    <g transform="matrix(1,0,0,1,-258.932,-531.985)">
        <path d="M312.231,539.985C313.1,559.528 319.832,711.002 354.726,780.787" style="fill:rgb(255,67,214);fill-opacity:0;"/>
        <path d="M304.239,540.34C304.043,535.929 307.465,532.189 311.876,531.993C316.287,531.797 320.027,535.219 320.224,539.63C321.08,558.907 327.461,708.371 361.881,777.209C363.856,781.158 362.253,785.968 358.304,787.942C354.354,789.917 349.545,788.314 347.57,784.365C312.203,713.632 305.12,560.148 304.239,540.34Z" style="fill:rgb(203,47,116);"/>
    </g>
    <g transform="matrix(1,0,0,1,-258.932,-531.985)">
        <path d="M374.556,539.985C360.345,753.176 376.446,760.016 380.222,775.121" style="fill:rgb(203,47,116);fill-opacity:0;"/>
        <path d="M366.574,539.453C366.868,535.048 370.683,531.709 375.089,532.003C379.494,532.297 382.832,536.112 382.539,540.517C368.477,751.463 384.247,758.235 387.984,773.181C389.055,777.464 386.446,781.811 382.163,782.882C377.879,783.953 373.532,781.345 372.461,777.061C368.645,761.797 352.213,754.889 366.574,539.453Z" style="fill:rgb(203,47,116);"/>
    </g>
    <g transform="matrix(0.938833,0,0,-0.0286792,-231.863,138.4)">
        <path d="M272.57,658.97C284.17,647.37 286.116,650.629 442.547,661.803" style="fill:rgb(203,47,116);"/>
        <path d="M272.31,380.152C267.609,384.853 263.909,513.603 264.053,667.487C264.196,821.37 268.129,942.488 272.83,937.787C284.411,926.206 286.354,929.594 442.529,940.749C447.232,941.085 451.058,816.366 451.069,662.411C451.079,508.456 447.269,383.192 442.566,382.856C285.878,371.664 283.929,368.534 272.31,380.152Z" style="fill:rgb(203,47,116);"/>
    </g>
    <g transform="matrix(0.63562,0,0,0.830547,-141.842,-402.506)">
        <path d="M235.741,707.13C258.391,706.321 347.392,680.986 518.655,708.595" style="fill:rgb(203,47,116);"/>
        <path d="M236.328,716.752C229.389,717 223.493,712.889 223.169,707.579C222.845,702.269 228.216,697.756 235.155,697.508C258.059,696.69 348.06,671.25 521.249,699.17C528.046,700.265 532.402,705.379 530.97,710.581C529.539,715.783 522.858,719.116 516.06,718.02C346.725,690.722 258.723,715.952 236.328,716.752Z" style="fill:rgb(203,47,116);"/>
    </g>
</svg>
