<?xml version="1.0" encoding="UTF-8" standalone="no"?>
<!DOCTYPE svg PUBLIC "-//W3C//DTD SVG 1.1//EN" "http://www.w3.org/Graphics/SVG/1.1/DTD/svg11.dtd">
<svg width="100%" height="100%" viewBox="0 0 600 340" version="1.1" xmlns="http://www.w3.org/2000/svg" xmlns:xlink="http://www.w3.org/1999/xlink" xml:space="preserve" xmlns:serif="http://www.serif.com/" style="fill-rule:evenodd;clip-rule:evenodd;stroke-linecap:round;stroke-linejoin:round;stroke-miterlimit:1.5;">
    <g transform="matrix(0.848855,0,0,0.808854,102.344,104.551)">
        <g transform="matrix(0.203655,-0.0921938,0.20953,0.627446,-538.749,-1057.01)">
            <path d="M1073.56,1675.54C949.839,1790.42 838.097,1761.42 686.256,1979.69C678.377,1991.02 616.79,2103.34 664.375,2198.51" style="fill:rgb(249,220,78);fill-opacity:0;"/>
            <path d="M1000.65,1664.42C1015.39,1650.73 1060.03,1644.6 1100.27,1650.73C1140.51,1656.87 1161.21,1672.97 1146.47,1686.66C1094.2,1735.19 1044.23,1759.47 992.488,1785.81C921.952,1821.73 849.235,1862.13 761.782,1987.85C754.299,1998.6 695.645,2105.28 740.839,2195.66C748.3,2210.59 720.095,2223.97 677.893,2225.54C635.691,2227.11 595.371,2216.27 587.91,2201.35C537.935,2101.4 602.456,1983.43 610.731,1971.54C705.487,1835.33 786.108,1791.84 862.534,1752.93C908.772,1729.38 953.939,1707.8 1000.65,1664.42Z" style="fill:rgb(249,220,78);"/>
        </g>
        <g transform="matrix(0.203655,-0.0921938,0.20953,0.627446,-635.375,-1049.4)">
            <path d="M1000.65,1664.42C1015.39,1650.73 1060.03,1644.6 1100.27,1650.73C1140.51,1656.87 1161.21,1672.97 1146.47,1686.66C1094.2,1735.19 1044.23,1759.47 992.488,1785.81C921.952,1821.73 849.235,1862.13 761.782,1987.85C754.299,1998.6 695.645,2105.28 740.839,2195.66C748.3,2210.59 720.095,2223.97 677.893,2225.54C635.691,2227.11 595.371,2216.27 587.91,2201.35C537.935,2101.4 602.456,1983.43 610.731,1971.54C705.487,1835.33 786.108,1791.84 862.534,1752.93C908.772,1729.38 953.939,1707.8 1000.65,1664.42Z" style="fill:rgb(203,47,116);"/>
        </g>
        <g transform="matrix(0.203655,-0.0921938,0.20953,0.627446,-601.863,-1052.69)">
            <path d="M1000.65,1664.42C1015.39,1650.73 1060.03,1644.6 1100.27,1650.73C1140.51,1656.87 1161.21,1672.97 1146.47,1686.66C1094.2,1735.19 1044.23,1759.47 992.488,1785.81C921.952,1821.73 849.235,1862.13 761.782,1987.85C754.299,1998.6 695.645,2105.28 740.839,2195.66C748.3,2210.59 720.095,2223.97 677.893,2225.54C635.691,2227.11 595.371,2216.27 587.91,2201.35C537.935,2101.4 602.456,1983.43 610.731,1971.54C705.487,1835.33 786.108,1791.84 862.534,1752.93C908.772,1729.38 953.939,1707.8 1000.65,1664.42Z" style="fill:rgb(60,129,198);"/>
        </g>
        <g transform="matrix(0.203655,-0.0921938,0.20953,0.627446,-569.281,-1060.59)">
            <path d="M1000.65,1664.42C1015.39,1650.73 1060.03,1644.6 1100.27,1650.73C1140.51,1656.87 1161.21,1672.97 1146.47,1686.66C1094.2,1735.19 1044.23,1759.47 992.488,1785.81C921.952,1821.73 849.235,1862.13 761.782,1987.85C754.299,1998.6 695.645,2105.28 740.839,2195.66C748.3,2210.59 720.095,2223.97 677.893,2225.54C635.691,2227.11 595.371,2216.27 587.91,2201.35C537.935,2101.4 602.456,1983.43 610.731,1971.54C705.487,1835.33 786.108,1791.84 862.534,1752.93C908.772,1729.38 953.939,1707.8 1000.65,1664.42Z" style="fill:rgb(70,149,120);"/>
        </g>
        <g transform="matrix(0.760181,0,0,1.02581,-540.507,-2046.33)">
            <path d="M840.792,1894.67C819.013,2008.4 813.4,2053.31 811.663,2067.2C811.201,2070.9 811.626,2070.64 810.543,2072.8" style="fill:none;stroke:black;stroke-width:16.82px;"/>
        </g>
        <g transform="matrix(0.566197,0,0,0.885086,-391.153,-1737.66)">
            <path d="M779.174,1989.9C800.194,1981.49 852.898,1995.07 971.871,1983.18" style="fill:none;stroke:black;stroke-width:13.67px;"/>
        </g>
        <g transform="matrix(0.760181,0,0,1.02581,-542.301,-2023.35)">
            <path d="M919.215,1908.11C912.78,1927.42 876.45,1987.3 857.597,2062.72" style="fill:none;stroke:black;stroke-width:16.82px;"/>
        </g>
        <g transform="matrix(0.760181,0,0,1.12112,-551.223,-2288.08)">
            <path d="M1046.93,2008.94C1053.88,2026.32 1058.52,2067.12 1068.22,2107.53C1070.77,2090.98 1070.2,1969.13 1091.75,1982.06C1116.46,1996.88 1121.42,2058.96 1122,2066.08C1123.02,2060.95 1122.69,2060.99 1133.54,2001.76C1143.7,2041.75 1145.04,2041.24 1146.64,2082.89" style="fill:none;stroke:black;stroke-width:15.88px;"/>
        </g>
        <g transform="matrix(0.760023,0.0209263,-0.0155075,1.0256,-667.009,-1931.47)">
            <path d="M1234.03,1985.42C1230.48,2013.78 1192.09,2077.13 1182.49,2096.33" style="fill:none;stroke:black;stroke-width:16.73px;"/>
        </g>
        <g transform="matrix(0.760181,0,0,1.02581,-698.849,-1906.62)">
            <path d="M1238.51,1992.14C1241.27,1997.67 1235.89,1999.34 1260.92,2066.08C1269.24,2088.29 1271.47,2086.55 1278.84,2108.65" style="fill:none;stroke:black;stroke-width:16.82px;"/>
        </g>
        <g transform="matrix(0.760181,0,0,1.02581,-698.849,-1906.62)">
            <path d="M1184.73,2039.19C1198.84,2033.55 1267.16,2029.53 1274.36,2029.11" style="fill:none;stroke:black;stroke-width:11.21px;"/>
        </g>
        <g transform="matrix(0.760023,0.0209263,-0.0155075,1.0256,-528.648,-2124.05)">
            <path d="M1234.03,1985.42C1230.48,2013.78 1192.09,2077.13 1182.49,2096.33" style="fill:none;stroke:black;stroke-width:16.73px;"/>
        </g>
        <g transform="matrix(0.760181,0,0,1.02581,-560.488,-2099.2)">
            <path d="M1238.51,1992.14C1241.27,1997.67 1235.89,1999.34 1260.92,2066.08C1269.24,2088.29 1271.47,2086.55 1278.84,2108.65" style="fill:none;stroke:black;stroke-width:16.82px;"/>
        </g>
        <g transform="matrix(0.760181,0,0,1.02581,-560.488,-2099.2)">
            <path d="M1184.73,2039.19C1198.84,2033.55 1267.16,2029.53 1274.36,2029.11" style="fill:none;stroke:black;stroke-width:11.21px;"/>
        </g>
        <g transform="matrix(0.760181,0,0,1.02581,-560.488,-2099.2)">
            <path d="M1184.73,2039.19C1198.84,2033.55 1267.16,2029.53 1274.36,2029.11" style="fill:none;stroke:black;stroke-width:11.21px;"/>
        </g>
        <g transform="matrix(0.760181,0,0,1.02581,-578.049,-2107.3)">
            <path d="M1324.78,2133.3C1324.78,2060.71 1328.08,2061.01 1316.73,1989.5C1325.52,2002.86 1347.18,2053.19 1370.71,2096.33C1371.69,2048.37 1368.37,2048.87 1375.19,2001.1" style="fill:none;stroke:black;stroke-width:16.82px;"/>
        </g>
        <g transform="matrix(0.760181,0,0,1.02581,-524.455,-2122.95)">
            <path d="M886.725,2257.66C899.703,2192.78 808.624,2203.22 802.701,2256.54C788.373,2385.5 943.95,2273.06 948.344,2269.98" style="fill:none;stroke:black;stroke-width:16.82px;"/>
        </g>
        <g transform="matrix(0.760181,0,0,1.02581,-923.053,-1634.91)">
            <path d="M1718.03,1804.79C1668.91,1845.73 1743.52,1850.01 1756.44,1837.96C1772.3,1823.17 1775.18,1781.5 1739.25,1750.95C1711.19,1727.11 1641.42,1714.16 1664.19,1691.4C1697.4,1658.19 1798.26,1702.45 1772.69,1710.98" style="fill:none;stroke:black;stroke-width:16.82px;"/>
        </g>
        <g transform="matrix(0.760181,0,0,1.02581,-457.385,-2156.27)">
            <path d="M1186.97,2248.7C1179.06,2327.85 1184.04,2339.66 1192.58,2340.56C1215.96,2343.02 1326,2310.62 1333.74,2291.27" style="fill:none;stroke:black;stroke-width:16.82px;"/>
        </g>
        <g transform="matrix(0.760181,0,0,1.02581,-457.385,-2156.27)">
            <path d="M1172.41,2247.58C1183.62,2236.37 1236.21,2234.35 1241.87,2234.13" style="fill:none;stroke:black;stroke-width:16.82px;"/>
        </g>
        <g transform="matrix(0.760181,0,0,1.02581,-458.874,-2106.05)">
            <path d="M1172.41,2247.58C1183.62,2236.37 1236.21,2234.35 1241.87,2234.13" style="fill:none;stroke:black;stroke-width:11.21px;"/>
        </g>
        <g transform="matrix(0.729486,0,0,0.841782,-972.735,-1650.48)">
            <path d="M1742.95,2139.74C1733.09,2167.49 1734.29,2165.42 1727.9,2196.52C1726.75,2202.11 1726.26,2211.38 1726.26,2219.47C1726.26,2273.64 1753.35,2258.28 1762.45,2252.32C1783.66,2238.39 1786.04,2226.7 1796.76,2188.86C1796.91,2188.34 1797.12,2186.79 1797.27,2186.26C1797.76,2184.53 1797.92,2182.97 1798.26,2181.23C1800.19,2171.33 1801.54,2160.56 1803.79,2143.69C1802.56,2159.38 1800,2172.4 1797.62,2184.5C1793.23,2206.78 1789.43,2225.94 1795.57,2252.95C1797.82,2262.86 1796.27,2258.62 1805.7,2252.66" style="fill:none;stroke:black;stroke-width:19.21px;"/>
        </g>
        <g transform="matrix(0.729486,0,0,0.841782,-1088.9,-1827.05)">
            <path d="M1742.95,2139.74C1733.09,2167.49 1734.29,2165.42 1727.9,2196.52C1726.75,2202.11 1726.26,2211.38 1726.26,2219.47C1726.26,2273.64 1753.35,2258.28 1762.45,2252.32C1783.66,2238.39 1786.04,2226.7 1796.76,2188.86C1796.91,2188.34 1797.12,2186.79 1797.27,2186.26C1797.76,2184.53 1797.92,2182.97 1798.26,2181.23C1800.19,2171.33 1801.54,2160.56 1803.79,2143.69C1802.56,2159.38 1800,2172.4 1797.62,2184.5C1793.23,2206.78 1789.43,2225.94 1795.57,2252.95C1797.82,2262.86 1796.27,2258.62 1805.7,2252.66" style="fill:none;stroke:black;stroke-width:19.21px;"/>
        </g>
    </g>
</svg>
